<svg width="24" height="24" viewBox="0 0 24 24" fill="none" xmlns="http://www.w3.org/2000/svg">
<path d="M3 8V2H4.33333V8C4.33333 8.53043 4.54405 9.03914 4.91912 9.41421C5.29419 9.78929 5.8029 10 6.33333 10C6.86377 10 7.37247 9.78929 7.74755 9.41421C8.12262 9.03914 8.33333 8.53043 8.33333 8V4C8.33333 3.82319 8.26309 3.65362 8.13807 3.5286C8.01305 3.40357 7.84348 3.33333 7.66667 3.33333C7.48986 3.33333 7.32029 3.40357 7.19526 3.5286C7.07024 3.65362 7 3.82319 7 4V8.66667H5.66667V4C5.66667 3.73736 5.7184 3.47728 5.81891 3.23463C5.91942 2.99198 6.06674 2.7715 6.25245 2.58579C6.43817 2.40007 6.65865 2.25275 6.9013 2.15224C7.14395 2.05173 7.40402 2 7.66667 2C7.92931 2 8.18938 2.05173 8.43203 2.15224C8.67468 2.25275 8.89516 2.40007 9.08088 2.58579C9.2666 2.7715 9.41392 2.99198 9.51443 3.23463C9.61494 3.47728 9.66667 3.73736 9.66667 4V8C9.66667 8.88406 9.31548 9.7319 8.69036 10.357C8.06523 10.9821 7.21739 11.3333 6.33333 11.3333C5.44928 11.3333 4.60143 10.9821 3.97631 10.357C3.35119 9.7319 3 8.88406 3 8Z" fill="#919EAB"/>
<path fill-rule="evenodd" clip-rule="evenodd" d="M19.6667 2H11V8C11 9.23768 10.5083 10.4247 9.63316 11.2998C8.75799 12.175 7.57101 12.6667 6.33333 12.6667H4.33333V20C4.33333 20.5304 4.54405 21.0391 4.91912 21.4142C5.29419 21.7893 5.8029 22 6.33333 22H19.6667C20.1971 22 20.7058 21.7893 21.0809 21.4142C21.456 21.0391 21.6667 20.5304 21.6667 20V4C21.6667 3.46957 21.456 2.96086 21.0809 2.58579C20.7058 2.21071 20.1971 2 19.6667 2ZM17.6667 7.33333H12.3333V8.66667H17.6667V7.33333ZM17.6667 11.3333H12.3333V12.6667H17.6667V11.3333ZM8.33333 15.3333H17.6667V16.6667H8.33333V15.3333Z" fill="#919EAB"/>
</svg>
