<svg width="256" height="192" viewBox="0 0 256 192" fill="none" xmlns="http://www.w3.org/2000/svg">
<path d="M126.22 54.99L95.9504 2.57001L65.6904 54.99H126.22Z" fill="#EBB63F"/>
<path d="M195.65 54.99L165.38 2.57001L135.12 54.99H195.65Z" fill="#EC9E99"/>
<path d="M195.65 60.13H135.12L165.38 112.55L195.65 60.13Z" fill="#328BCB"/>
<path d="M160.93 0H100.4L130.67 52.42L160.93 0Z" fill="#D94080"/>
<path d="M126.22 60.13H65.6904L95.9504 112.55L126.22 60.13Z" fill="#248480"/>
<path d="M99.7896 185.06C99.7737 183.8 100.133 182.564 100.821 181.51C101.51 180.455 102.497 179.628 103.656 179.136C104.815 178.643 106.095 178.506 107.332 178.743C108.57 178.98 109.709 179.579 110.604 180.465C111.5 181.351 112.112 182.483 112.362 183.718C112.613 184.952 112.49 186.233 112.011 187.398C111.531 188.563 110.716 189.559 109.668 190.259C108.621 190.959 107.389 191.332 106.13 191.33C105.297 191.35 104.47 191.202 103.696 190.895C102.922 190.588 102.218 190.128 101.626 189.543C101.035 188.958 100.567 188.259 100.251 187.489C99.9356 186.718 99.7786 185.892 99.7896 185.06Z" fill="white"/>
<path d="M0 138.32H10.21L28.2 163.73L46.28 138.32H55.85V191.34H45V158.72L31.02 180.42H24.91L10.93 158.81V191.34H0V138.32Z" fill="white"/>
<path d="M76.4604 171.4L58.8604 138.14H71.6403L82.7304 158.65L93.8204 138.14H106.11L88.5104 171.4V191.17H76.4604V171.4Z" fill="white"/>
<path d="M110.479 138.14H122.609L134.339 174.7L143.819 150.67L137.419 138.14H152.019L163.749 173.82L174.669 138.14H186.329L169.609 191.17H157.639L148.479 164.01L139.079 191.17H127.109L110.479 138.14Z" fill="white"/>
<path d="M203.51 138.14H191.46V191.17H203.51V138.14Z" fill="white"/>
<path d="M211.74 138.14H222.43L244.93 169.15V138.14H255.85V191.17H245.17L222.67 157.58V191.17H211.74V138.14Z" fill="white"/>
</svg>
